<svg xmlns="http://www.w3.org/2000/svg" viewBox="0 0 108 144"><defs><style>.cls-1{fill:#fff;}</style></defs><title>favicon</title><g id="Layer_2" data-name="Layer 2"><g id="Layer_1-2" data-name="Layer 1"><path d="M4,143.5A3.5,3.5,0,0,1,.5,140V5A4.51,4.51,0,0,1,5,.5h99A3.5,3.5,0,0,1,107.5,4V140a3.5,3.5,0,0,1-3.5,3.5Z"/><path d="M104,1a3,3,0,0,1,3,3V140a3,3,0,0,1-3,3H4a3,3,0,0,1-3-3V5A4,4,0,0,1,5,1h99m0-1H5A5,5,0,0,0,0,5V140a4,4,0,0,0,4,4H104a4,4,0,0,0,4-4V4a4,4,0,0,0-4-4Z"/><path class="cls-1" d="M76.12,22.24,83.2,12.1h5.74l.47,42.37H84.22Q79.35,35,69.79,26a31.18,31.18,0,0,0-22-9q-10.38,0-17,6.22a20,20,0,0,0-6.6,15.18,18.8,18.8,0,0,0,2.51,9.8,18.59,18.59,0,0,0,7.5,6.84q5,2.64,18.83,5.61,19.42,4.23,27.25,8.55A28.06,28.06,0,0,1,95.85,95.5q0,15.73-10.57,26.06T58,131.9a46,46,0,0,1-31.29-11.63l-8.88,10.85H12.13V86.07h5.66q3.3,18.63,14.78,29.4t25.86,10.77q11.64,0,19-6.88a22,22,0,0,0,7.35-16.7A17.53,17.53,0,0,0,82,92.87a20.91,20.91,0,0,0-8.73-7.07q-6-2.88-23.5-7Q30.53,74.28,23.53,68.62q-9.83-8-9.83-22.72,0-15.33,9.79-25.12t25-9.78a37.68,37.68,0,0,1,13.91,2.59A48.83,48.83,0,0,1,76.12,22.24Z"/></g></g></svg>